<svg width="100%" viewBox="0 0 680 680" xmlns="http://www.w3.org/2000/svg">
  <style>
    @keyframes blink {
      0%, 91%, 100% { opacity: 1; }
      93%, 98% { opacity: 0; }
    }
    .eye-blink {
      animation: blink 9s infinite;
    }
  </style>

  <g transform="translate(340,340)">
    <circle r="260" fill="none" stroke="#4CAF7D" stroke-width="4"/>
    <circle cx="0" cy="-60" r="160" fill="none" stroke="#4CAF7D" stroke-width="3.5"/>
    <circle cx="0" cy="60" r="160" fill="none" stroke="#4CAF7D" stroke-width="3.5"/>

    <g class="eye-blink">
      <path d="M -138,0 Q 0,-130 138,0" fill="none" stroke="#4CAF7D" stroke-width="3.5"/>
      <path d="M -138,0 Q 0,130 138,0" fill="none" stroke="#4CAF7D" stroke-width="3.5"/>
      <circle r="68" fill="none" stroke="#4CAF7D" stroke-width="1.2"/>
      <circle r="58" fill="none" stroke="#4CAF7D" stroke-width="0.8"/>
      <circle r="48" fill="none" stroke="#4CAF7D" stroke-width="0.7"/>
      <circle r="38" fill="none" stroke="#4CAF7D" stroke-width="0.6"/>
      <circle r="28" fill="none" stroke="#4CAF7D" stroke-width="0.6"/>
      <g fill="none" stroke="#4CAF7D" stroke-width="0.6">
        <line x1="0" y1="-68" x2="0" y2="-18"/>
        <line x1="0" y1="18" x2="0" y2="68"/>
        <line x1="-68" y1="0" x2="-18" y2="0"/>
        <line x1="18" y1="0" x2="68" y2="0"/>
        <line x1="-48" y1="-48" x2="-13" y2="-13"/>
        <line x1="13" y1="13" x2="48" y2="48"/>
        <line x1="48" y1="-48" x2="13" y2="-13"/>
        <line x1="-13" y1="13" x2="-48" y2="48"/>
        <line x1="-26" y1="-63" x2="-7" y2="-17"/>
        <line x1="7" y1="17" x2="26" y2="63"/>
        <line x1="26" y1="-63" x2="7" y2="-17"/>
        <line x1="-7" y1="17" x2="-26" y2="63"/>
        <line x1="-63" y1="-26" x2="-17" y2="-7"/>
        <line x1="17" y1="7" x2="63" y2="26"/>
        <line x1="-63" y1="26" x2="-17" y2="7"/>
        <line x1="17" y1="-7" x2="63" y2="-26"/>
        <path d="M -60,0 Q -30,-30 0,-60" stroke-width="0.5"/>
        <path d="M 0,60 Q 30,30 60,0" stroke-width="0.5"/>
        <path d="M 60,0 Q 30,-30 0,-60" stroke-width="0.5"/>
        <path d="M 0,60 Q -30,30 -60,0" stroke-width="0.5"/>
        <path d="M -42,-42 Q 0,-60 42,-42" stroke-width="0.5"/>
        <path d="M -42,42 Q 0,60 42,42" stroke-width="0.5"/>
      </g>
      <circle r="10" fill="#4CAF7D"/>
    </g>
  </g>
</svg>
